<?xml version="1.0" standalone="no"?>
<svg xmlns="http://www.w3.org/2000/svg" viewBox="0 0 148.993 36" width="148.993" height="36"><g fill="#937CAB" color="#937CAB" transform="translate(0 4.777777777777779) scale(0.5185186)"><svg width="54.0" height="51.0" x="0.0" y="0.0" viewBox="0 0 54 51"><path fill="currentColor" fill-rule="evenodd" d="M49.971 41.85c-2.52 4.41-6.66 7.11-10.8 7.11-1.98 0-4.86-.63-7.83-3.51-.81-.81-3.87-4.41-7.11-9.27l-1.17-1.71s-1.35-2.25-1.62-2.79v-.09c-.09-.18-.18-.36-.36-.54 0-.09-.09-.09-.09-.18-.09-.09-.09-.18-.18-.36-.09-.09-.09-.27-.18-.36 1.35-.18 2.97-.45 3.33-.45.99-.18 1.98-.54 2.79-1.35 0 .09.09.09.09.18.09.18.27.36.36.63.72 1.17 1.44 2.34 2.25 3.6l1.98 2.79c2.16 2.97 4.05 5.13 4.5 5.58 1.08 1.17 2.25 1.71 3.33 1.71 1.89 0 4.05-1.62 5.4-4.05 1.26-2.16 1.62-4.68.99-6.3-.54-1.17-1.62-1.98-3.33-2.52-.45-.09-2.97-.63-6.57-1.08.9-1.89 2.34-4.95 2.88-5.85 2.7.36 4.68.81 5.31.99 4.59 1.17 6.66 3.96 7.56 6.12 1.26 3.33.81 7.74-1.53 11.7zm-30.06-9.27c.18.27.63 1.17 1.08 1.8l-.09.18c-2.25 3.06-4.05 5.13-4.23 5.31-.54.54-1.35 1.17-2.16 1.17-1.08 0-2.79-1.08-3.96-3.15-1.17-1.98-1.26-3.87-.9-4.77.18-.45.63-1.08 2.25-1.53.63-.18 3.33-.72 6.75-1.08h.18l.09.18c.27.45.45.9.72 1.26.09.18.18.36.27.63zm2.34 12.87c-2.88 2.88-5.85 3.51-7.74 3.51-4.14 0-8.28-2.7-10.8-7.11-2.34-3.96-2.79-8.37-1.35-11.79.9-2.07 2.88-4.86 7.47-6.12.63-.18 2.25-.54 4.32-.81H15.591s3.78-.54 9.18-.81h3.51c-.27.63-1.44 3.42-2.79 5.04-.54.72-1.17.99-1.71 1.08-1.89.27-5.85.72-5.94.72-.72.09-1.35.18-1.89.27-2.34.36-3.96.72-4.59.81-1.8.45-2.88 1.26-3.33 2.52-.72 1.62-.27 4.14.99 6.3 1.35 2.43 3.6 4.05 5.4 4.05 1.08 0 2.25-.54 3.33-1.71.27-.27 1.89-2.16 4.14-5.13.9 1.26 2.7 3.87 3.78 5.31-1.71 1.98-2.97 3.51-3.42 3.87zm6.84-25.02h-4.5l-.09-.18c-1.53-3.51-2.43-6.03-2.43-6.21-.45-1.62-.09-2.25.18-2.7.63-.81 2.34-1.62 4.59-1.62h.27c2.16.09 3.78.9 4.32 1.62.45.63.54 1.53.18 2.61-.72 2.34-1.71 4.68-2.52 6.48zm5.85 10.08c3.87.45 6.57.99 6.84 1.08 1.62.45 2.07 1.08 2.25 1.53.36.9.27 2.79-.9 4.77-1.17 2.07-2.88 3.15-3.96 3.15-.81 0-1.62-.63-2.16-1.17-.27-.27-2.07-2.34-4.32-5.4l-.09-.09.27-.36.54-.81c.36-.54.63-1.17.99-1.8l.45-.81.09-.09zm-20.52-14.4c-1.26-4.59.18-7.74 1.53-9.54 2.25-2.97 6.39-4.77 10.89-4.77h.27c4.41.09 8.37 1.8 10.62 4.77 1.35 1.8 2.79 4.95 1.53 9.54-.27.9-1.98 5.58-4.5 10.71l-.9 1.89-.99 1.89c-.36.63-.63 1.17-.99 1.8-.09.18-.27.45-.36.63-1.35-1.98-3.42-5.31-3.78-5.94.54-.9.99-1.89 1.53-2.97 0 0 2.52-4.68 4.05-9.63.54-1.71.36-3.06-.45-4.14-.99-1.35-3.24-2.25-5.67-2.34h-.27c-2.52 0-4.86.9-5.94 2.34-.81 1.08-.99 2.43-.45 4.14.09.27.9 2.7 2.34 6.03-1.89.09-3.96.27-6.48.63 0-.09-.09-.18-.09-.27v-.09c0-.09-.09-.18-.09-.27-1.08-2.25-1.62-3.87-1.8-4.41zm38.52 13.32c-.99-2.43-3.33-5.67-8.64-7.11-.72-.18-2.61-.54-5.13-.99.99-2.43 1.62-4.23 1.8-4.86 1.44-5.31-.18-8.91-1.8-11.07-2.52-3.33-6.93-5.31-11.88-5.4h-.36c-5.04 0-9.63 2.07-12.24 5.4-1.62 2.16-3.24 5.76-1.8 11.07.18.63.81 2.43 1.8 4.86-2.34.36-4.23.72-5.13.99-5.31 1.35-7.65 4.59-8.64 7.11-1.62 3.96-1.08 8.91 1.44 13.32 2.88 4.95 7.56 8.01 12.33 8.01 2.25 0 5.67-.72 9-4.05.45-.45 1.8-1.98 3.33-3.96 1.62 2.07 2.88 3.51 3.33 3.96 3.33 3.33 6.75 4.05 9 4.05 4.77 0 9.45-3.06 12.33-8.01 2.34-4.41 2.88-9.45 1.26-13.32z"></path></svg></g><path fill="#3b496b" fill-rule="nonzero" d="M5.90 10.39L5.90 10.39Q5.26 10.39 4.92 10.37L4.92 10.37Q3.89 14.88 3.77 16.63L3.77 16.63Q2.74 17.14 0.62 17.14L0.62 17.14Q0.17 17.14 0 17.11L0 17.11Q0.17 15.70 1.44 10.00Q2.71 4.30 2.71 2.81L2.71 2.81Q2.71 2.52 2.39 2.05Q2.06 1.58 1.73 1.27L1.73 1.27L1.42 0.96L1.49 0.60Q5.52 0 8.02 0L8.02 0Q12.96 0 12.96 4.03L12.96 4.03Q12.96 6.72 11.18 8.56Q9.41 10.39 5.90 10.39ZM5.28 8.78L5.52 8.78Q7.37 8.78 8.32 7.39Q9.26 6.00 9.26 3.67L9.26 3.67Q9.26 2.71 8.90 2.10Q8.54 1.49 7.85 1.49L7.85 1.49Q7.39 1.49 6.72 1.66L6.72 1.66Q6.34 4.18 5.28 8.78L5.28 8.78ZM19.92 7.10L19.92 7.10Q19.97 7.06 20.18 6.48L20.18 6.48Q21.31 6.48 23.21 7.15L23.21 7.15Q22.61 9.14 22.25 11.32Q21.89 13.49 21.89 14.41Q21.89 15.34 22.08 15.34L22.08 15.34Q22.22 15.34 23.14 14.88L23.14 14.88L23.42 14.74L23.86 15.58Q23.64 15.77 23.29 16.06Q22.94 16.34 21.98 16.84Q21.02 17.33 20.26 17.33L20.26 17.33Q18.77 17.33 18.53 15.98L18.53 15.98Q16.99 17.33 15.76 17.33Q14.52 17.33 13.67 16.37Q12.82 15.41 12.82 13.34L12.82 13.34Q12.82 10.13 14.14 8.27Q15.46 6.41 17.33 6.41L17.33 6.41Q18.67 6.41 19.92 7.10ZM17.18 15.29L17.18 15.29Q17.76 15.29 18.48 14.83L18.48 14.83Q18.65 11.45 19.61 8.14L19.61 8.14Q18.89 7.82 18.38 7.82L18.38 7.82Q17.52 7.82 16.91 9.52Q16.30 11.21 16.30 13.25Q16.30 15.29 17.18 15.29ZM24.77 17.11L24.77 17.11L24.60 17.11Q24.55 16.92 24.55 16.24Q24.55 15.55 25.20 12.55Q25.85 9.55 25.85 9.12L25.85 9.12Q25.85 8.38 25.18 7.49L25.18 7.49L24.96 7.20L24.98 6.89Q26.28 6.53 29.14 6.53L29.14 6.53Q29.42 7.15 29.42 8.28L29.42 8.28Q29.69 7.85 30.53 7.13Q31.37 6.41 32.26 6.41L32.26 6.41Q33.55 6.41 33.55 8.66L33.55 8.66Q33.43 8.81 33.23 9.04Q33.02 9.26 32.41 9.67Q31.80 10.08 31.22 10.18L31.22 10.18Q31.20 10.18 30.82 9.53Q30.43 8.88 30.24 8.88L30.24 8.88Q29.64 9.10 29.18 9.60L29.18 9.60Q28.08 14.57 28.08 16.03L28.08 16.03Q28.08 16.56 28.10 16.78L28.10 16.78Q27.26 17.11 24.77 17.11ZM38.69 6.70L41.02 6.70Q40.97 7.30 40.61 8.09L40.61 8.09Q39.70 7.99 38.88 7.99L38.88 7.99L38.45 7.99Q37.34 13.34 37.34 14.66L37.34 14.66Q37.34 15.36 37.64 15.36Q37.94 15.36 39.24 14.76L39.24 14.76L39.67 15.55Q37.54 17.33 35.71 17.33L35.71 17.33Q34.87 17.33 34.33 16.80Q33.79 16.27 33.79 15.40Q33.79 14.52 34.00 13.42Q34.20 12.31 34.56 10.72Q34.92 9.12 35.09 8.14L35.09 8.14Q34.20 8.21 33.77 8.28L33.77 8.28Q33.72 7.99 33.72 7.50Q33.72 7.01 33.79 6.70L33.79 6.70L35.30 6.70Q35.50 5.40 35.50 4.25L35.50 4.25L35.47 3.50L35.47 3.43Q37.34 2.78 39 2.78L39 2.78Q39.10 3.26 39.10 3.98Q39.10 4.70 38.69 6.70L38.69 6.70ZM41.47 17.11L41.47 17.11L41.02 17.11Q41.02 15.98 41.70 12.79Q42.38 9.60 42.38 9.17L42.38 9.17Q42.38 8.38 41.71 7.49L41.71 7.49L41.50 7.20L41.52 6.89Q42.82 6.53 45.67 6.53L45.67 6.53Q45.98 6.94 46.01 8.02L46.01 8.02Q48.10 6.41 49.54 6.41L49.54 6.41Q50.40 6.41 50.92 7.01Q51.43 7.61 51.43 8.51Q51.43 9.41 50.88 11.62Q50.33 13.82 50.33 14.58Q50.33 15.34 50.52 15.34L50.52 15.34Q50.66 15.34 51.53 14.88L51.53 14.88L51.82 14.74L52.25 15.58Q52.03 15.77 51.67 16.06Q51.31 16.34 50.34 16.84Q49.37 17.33 48.60 17.33L48.60 17.33Q46.85 17.33 46.85 15.34L46.85 15.34Q46.85 14.50 47.39 12.24Q47.93 9.98 47.93 9.34Q47.93 8.69 47.52 8.69L47.52 8.69Q46.82 8.69 45.82 9.29L45.82 9.29Q45.74 9.70 45.34 11.45L45.34 11.45Q44.50 15.22 44.50 16.78L44.50 16.78Q43.66 17.11 41.47 17.11ZM52.92 12.89L52.92 12.89Q52.92 9.89 54.73 8.15Q56.54 6.41 58.85 6.41L58.85 6.41Q60.26 6.41 61.18 7.10Q62.09 7.80 62.09 8.96Q62.09 10.13 61.50 10.92Q60.91 11.71 60.07 12.14L60.07 12.14Q58.37 12.98 56.95 13.20L56.95 13.20L56.38 13.27Q56.54 15.53 58.22 15.53L58.22 15.53Q58.80 15.53 59.45 15.24Q60.10 14.95 60.46 14.66L60.46 14.66L60.82 14.38L61.39 15.14Q61.20 15.41 60.62 15.84Q60.05 16.27 59.54 16.56L59.54 16.56Q58.15 17.33 56.50 17.33Q54.84 17.33 53.88 16.15Q52.92 14.98 52.92 12.89ZM56.35 12.10Q57.58 11.88 58.30 11.06Q59.02 10.25 59.02 8.95Q59.02 7.66 58.25 7.66L58.25 7.66Q57.34 7.66 56.84 9.20Q56.35 10.75 56.35 12.10L56.35 12.10ZM63.07 17.11L63.07 17.11L62.90 17.11Q62.86 16.92 62.86 16.24Q62.86 15.55 63.50 12.55Q64.15 9.55 64.15 9.12L64.15 9.12Q64.15 8.38 63.48 7.49L63.48 7.49L63.26 7.20L63.29 6.89Q64.58 6.53 67.44 6.53L67.44 6.53Q67.73 7.15 67.73 8.28L67.73 8.28Q67.99 7.85 68.83 7.13Q69.67 6.41 70.56 6.41L70.56 6.41Q71.86 6.41 71.86 8.66L71.86 8.66Q71.74 8.81 71.53 9.04Q71.33 9.26 70.72 9.67Q70.10 10.08 69.53 10.18L69.53 10.18Q69.50 10.18 69.12 9.53Q68.74 8.88 68.54 8.88L68.54 8.88Q67.94 9.10 67.49 9.60L67.49 9.60Q66.38 14.57 66.38 16.03L66.38 16.03Q66.38 16.56 66.41 16.78L66.41 16.78Q65.57 17.11 63.07 17.11ZM77.57 10.39L77.57 10.39Q76.92 10.39 76.58 10.37L76.58 10.37Q75.55 14.88 75.43 16.63L75.43 16.63Q74.40 17.14 72.29 17.14L72.29 17.14Q71.83 17.14 71.66 17.11L71.66 17.11Q71.83 15.70 73.10 10.00Q74.38 4.30 74.38 2.81L74.38 2.81Q74.38 2.52 74.05 2.05Q73.73 1.58 73.39 1.27L73.39 1.27L73.08 0.96L73.15 0.60Q77.18 0 79.68 0L79.68 0Q84.62 0 84.62 4.03L84.62 4.03Q84.62 6.72 82.85 8.56Q81.07 10.39 77.57 10.39ZM76.94 8.78L77.18 8.78Q79.03 8.78 79.98 7.39Q80.93 6.00 80.93 3.67L80.93 3.67Q80.93 2.71 80.57 2.10Q80.21 1.49 79.51 1.49L79.51 1.49Q79.06 1.49 78.38 1.66L78.38 1.66Q78 4.18 76.94 8.78L76.94 8.78ZM91.58 7.10L91.58 7.10Q91.63 7.06 91.85 6.48L91.85 6.48Q92.98 6.48 94.87 7.15L94.87 7.15Q94.27 9.14 93.91 11.32Q93.55 13.49 93.55 14.41Q93.55 15.34 93.74 15.34L93.74 15.34Q93.89 15.34 94.80 14.88L94.80 14.88L95.09 14.74L95.52 15.58Q95.30 15.77 94.96 16.06Q94.61 16.34 93.65 16.84Q92.69 17.33 91.92 17.33L91.92 17.33Q90.43 17.33 90.19 15.98L90.19 15.98Q88.66 17.33 87.42 17.33Q86.18 17.33 85.33 16.37Q84.48 15.41 84.48 13.34L84.48 13.34Q84.48 10.13 85.80 8.27Q87.12 6.41 88.99 6.41L88.99 6.41Q90.34 6.41 91.58 7.10ZM88.85 15.29L88.85 15.29Q89.42 15.29 90.14 14.83L90.14 14.83Q90.31 11.45 91.27 8.14L91.27 8.14Q90.55 7.82 90.05 7.82L90.05 7.82Q89.18 7.82 88.57 9.52Q87.96 11.21 87.96 13.25Q87.96 15.29 88.85 15.29ZM101.47 7.61L101.47 7.61Q100.51 7.61 99.94 9.20Q99.36 10.80 99.36 12.62L99.36 12.62Q99.36 15.50 101.14 15.50L101.14 15.50Q101.71 15.50 102.36 15.23Q103.01 14.95 103.39 14.69L103.39 14.69L103.75 14.40L104.30 15.14Q104.11 15.41 103.54 15.84Q102.96 16.27 102.46 16.56Q101.95 16.85 101.16 17.09Q100.37 17.33 99.60 17.33L99.60 17.33Q97.73 17.33 96.79 16.10Q95.86 14.88 95.86 12.82L95.86 12.82Q95.86 9.96 97.43 8.18Q99 6.41 101.47 6.41L101.47 6.41Q103.08 6.41 104.03 7.14Q104.98 7.87 104.98 8.94Q104.98 10.01 104.30 10.78L104.30 10.78Q103.70 10.78 102.91 10.51Q102.12 10.25 101.71 9.86L101.71 9.86L102.07 7.75Q101.86 7.61 101.47 7.61ZM110.66 6.70L112.99 6.70Q112.94 7.30 112.58 8.09L112.58 8.09Q111.67 7.99 110.86 7.99L110.86 7.99L110.42 7.99Q109.32 13.34 109.32 14.66L109.32 14.66Q109.32 15.36 109.62 15.36Q109.92 15.36 111.22 14.76L111.22 14.76L111.65 15.55Q109.51 17.33 107.69 17.33L107.69 17.33Q106.85 17.33 106.31 16.80Q105.77 16.27 105.77 15.40Q105.77 14.52 105.97 13.42Q106.18 12.31 106.54 10.72Q106.90 9.12 107.06 8.14L107.06 8.14Q106.18 8.21 105.74 8.28L105.74 8.28Q105.70 7.99 105.70 7.50Q105.70 7.01 105.77 6.70L105.77 6.70L107.28 6.70Q107.47 5.40 107.47 4.25L107.47 4.25L107.45 3.50L107.45 3.43Q109.32 2.78 110.98 2.78L110.98 2.78Q111.07 3.26 111.07 3.98Q111.07 4.70 110.66 6.70L110.66 6.70Z" transform="translate(36, 9.48)"></path></svg>